<svg width="30" height="30" viewBox="0 0 30 30" fill="none" xmlns="http://www.w3.org/2000/svg">
<path d="M22 8C22 9.65685 20.6569 11 19 11C17.3431 11 16 9.65685 16 8M22 8C22 6.34315 20.6569 5 19 5C17.3431 5 16 6.34315 16 8M22 8H25M16 8H5M14 15C14 16.6569 12.6569 18 11 18C9.34315 18 8 16.6569 8 15M14 15C14 13.3431 12.6569 12 11 12C9.34315 12 8 13.3431 8 15M14 15H25M8 15H5M22 22C22 23.6569 20.6569 25 19 25C17.3431 25 16 23.6569 16 22M22 22C22 20.3431 20.6569 19 19 19C17.3431 19 16 20.3431 16 22M22 22H25M16 22H5" stroke="black"/>
</svg>
