<svg width="26" height="20" viewBox="0 0 26 20" fill="none" xmlns="http://www.w3.org/2000/svg">
<path fill-rule="evenodd" clip-rule="evenodd" d="M8 2H18C22.4183 2 26 5.58172 26 10C26 14.4183 22.4183 18 18 18H8C3.58172 18 0 14.4183 0 10C0 5.58172 3.58172 2 8 2Z" fill="white"/>
<path fill-rule="evenodd" clip-rule="evenodd" d="M18 2C22.4183 2 26 5.58172 26 10C26 14.3349 22.5522 17.8645 18.2492 17.9962L18 18H13H11V17H13H18C21.866 17 25 13.866 25 10C25 6.21455 21.9952 3.1309 18.2407 3.00406L18 3H8C4.21455 3 1.1309 6.00478 1.00406 9.75935L1 10H0C0 5.66509 3.44784 2.13546 7.75082 2.00381L8 2H18ZM1.00001 10.0115C1.00037 10.2329 1.01098 10.4529 1.03172 10.6711L0.0362042 10.7657C0.0125303 10.5166 0.000417549 10.2656 1.06092e-05 10.0132L1.00001 10.0115ZM2.33865 14.1178C1.97078 13.613 1.67176 13.0612 1.45053 12.4765L0.515224 12.8303C0.768227 13.499 1.11007 14.1298 1.53046 14.7067L2.33865 14.1178ZM3.65258 15.4867C4.14207 15.8751 4.68125 16.1967 5.25614 16.4419L4.86381 17.3617C4.20649 17.0814 3.59025 16.7138 3.031 16.2701L3.65258 15.4867ZM9 17H8C7.68613 17 7.37497 16.9794 7.06783 16.9385L6.93602 17.9298C7.28683 17.9765 7.64202 18 8 18H9V17ZM11 6.28V13.7162L17.3955 9.99823L11 6.28ZM11.9994 8.01807L15.4044 9.99807L11.9994 11.9771V8.01807Z" fill="black"/>
</svg>
