<svg width="18" height="19" viewBox="0 0 18 19" fill="none" xmlns="http://www.w3.org/2000/svg">
<path fill-rule="evenodd" clip-rule="evenodd" d="M15 9.5C15 12.8137 12.3137 15.5 9 15.5C5.68629 15.5 3 12.8137 3 9.5C3 6.18629 5.68629 3.5 9 3.5C11.087 3.5 12.9251 4.56551 14 6.1822V5H15V8.5H14.917H13.9H11.5V7.5H13.584C12.8124 5.7341 11.0503 4.5 9 4.5C6.23858 4.5 4 6.73858 4 9.5C4 12.2614 6.23858 14.5 9 14.5C11.7614 14.5 14 12.2614 14 9.5H15Z" fill="#777777"/>
<mask id="mask0_11030_1706" style="mask-type:alpha" maskUnits="userSpaceOnUse" x="3" y="3" width="12" height="13">
<path fill-rule="evenodd" clip-rule="evenodd" d="M15 9.5C15 12.8137 12.3137 15.5 9 15.5C5.68629 15.5 3 12.8137 3 9.5C3 6.18629 5.68629 3.5 9 3.5C11.087 3.5 12.9251 4.56551 14 6.1822V5H15V8.5H14.917H13.9H11.5V7.5H13.584C12.8124 5.7341 11.0503 4.5 9 4.5C6.23858 4.5 4 6.73858 4 9.5C4 12.2614 6.23858 14.5 9 14.5C11.7614 14.5 14 12.2614 14 9.5H15Z" fill="white"/>
</mask>
<g mask="url(#mask0_11030_1706)">
</g>
</svg>
